<svg  xmlns="http://www.w3.org/2000/svg" viewBox="0 0 29.19 29.28"><g><g><path fill="#f8b1ad" d="M29.19,7.36c0,.77-.12,1.59-.35,2.43-.24,.85-.67,1.67-1.32,2.47-.64,.8-1.48,1.4-2.5,1.8-1.02,.4-2.06,.6-3.13,.6s-2.09-.17-2.99-.53c-.91-.35-1.69-.85-2.33-1.5-.64-.64-1.13-1.41-1.46-2.31s-.5-1.88-.5-2.95,.17-2.02,.52-2.93,.83-1.7,1.47-2.36c.63-.67,1.4-1.18,2.31-1.53,.91-.35,1.91-.53,2.99-.53,2.18,0,3.93,.69,5.28,2.06s2.02,3.14,2.02,5.29Zm-1.57,.03c0-1.8-.52-3.26-1.57-4.38s-2.43-1.68-4.16-1.68-3.18,.56-4.21,1.68-1.55,2.58-1.55,4.38,.51,3.21,1.55,4.3c1.03,1.08,2.44,1.63,4.21,1.63,.64,0,1.3-.1,1.96-.29,.67-.18,1.28-.51,1.83-.98s1.02-1.08,1.38-1.86c.37-.77,.55-1.71,.55-2.8Z"/><path fill="#304a5e" d="M14.59,7.36c0,.77-.12,1.59-.35,2.43-.24,.85-.67,1.67-1.32,2.47-.64,.8-1.48,1.4-2.5,1.8-1.02,.4-2.06,.6-3.13,.6s-2.09-.17-2.99-.53c-.91-.35-1.69-.85-2.33-1.5-.64-.64-1.13-1.41-1.46-2.31s-.5-1.88-.5-2.95,.17-2.02,.52-2.93,.83-1.7,1.47-2.36c.63-.67,1.4-1.18,2.31-1.53,.91-.35,1.91-.53,2.99-.53,2.18,0,3.93,.69,5.28,2.06,1.34,1.38,2.02,3.14,2.02,5.29Zm-1.57,.03c0-1.8-.52-3.26-1.57-4.38s-2.43-1.68-4.16-1.68-3.18,.56-4.21,1.68-1.55,2.58-1.55,4.38,.51,3.21,1.55,4.3c1.03,1.08,2.44,1.63,4.21,1.63,.64,0,1.3-.1,1.96-.29,.67-.18,1.28-.51,1.83-.98s1.02-1.08,1.38-1.86c.37-.77,.55-1.71,.55-2.8Z"/><path fill="#304a5e" d="M14.59,21.99c0,.77-.12,1.59-.35,2.43-.24,.85-.67,1.67-1.32,2.47-.64,.8-1.48,1.4-2.5,1.8-1.02,.4-2.06,.6-3.13,.6s-2.09-.17-2.99-.53c-.91-.35-1.69-.85-2.33-1.5-.64-.64-1.13-1.41-1.46-2.31s-.5-1.88-.5-2.95,.17-2.02,.52-2.93,.83-1.7,1.47-2.36c.63-.67,1.4-1.18,2.31-1.53,.91-.35,1.91-.53,2.99-.53,2.18,0,3.93,.69,5.28,2.06s2.02,3.14,2.02,5.29Zm-1.57,.03c0-1.8-.52-3.26-1.57-4.38s-2.43-1.68-4.16-1.68-3.18,.56-4.21,1.68-1.55,2.58-1.55,4.38,.51,3.21,1.55,4.3c1.03,1.08,2.44,1.63,4.21,1.63,.64,0,1.3-.1,1.96-.29,.67-.18,1.28-.51,1.83-.98s1.02-1.08,1.38-1.86c.37-.77,.55-1.71,.55-2.8Z"/><path fill="#304a5e" d="M29.17,21.99c0,.77-.12,1.59-.35,2.43-.24,.85-.67,1.67-1.32,2.47-.64,.8-1.48,1.4-2.5,1.8-1.02,.4-2.06,.6-3.13,.6s-2.09-.17-2.99-.53c-.91-.35-1.69-.85-2.33-1.5-.64-.64-1.13-1.41-1.46-2.31s-.5-1.88-.5-2.95,.17-2.02,.52-2.93,.83-1.7,1.47-2.36c.63-.67,1.4-1.18,2.31-1.53,.91-.35,1.91-.53,2.99-.53,2.18,0,3.93,.69,5.28,2.06s2.02,3.14,2.02,5.29Zm-1.57,.03c0-1.8-.52-3.26-1.57-4.38s-2.43-1.68-4.16-1.68-3.18,.56-4.21,1.68-1.55,2.58-1.55,4.38,.51,3.21,1.55,4.3c1.03,1.08,2.44,1.63,4.21,1.63,.64,0,1.3-.1,1.96-.29,.67-.18,1.28-.51,1.83-.98s1.02-1.08,1.38-1.86c.37-.77,.55-1.71,.55-2.8Z"/></g></g></svg>
