<svg id="Layer_2" xmlns="http://www.w3.org/2000/svg" viewBox="0 0 107.37 28.44">
  <g id="Layer_1-2"><g><path fill="#304a5e" d="M18.6,14.1v7.57c0,.08-.02,.19-.05,.32-.03,.13-.19,.19-.46,.19h-.41c-.08,0-.2-.02-.33-.05s-.21-.19-.21-.46v-7.61c0-.76-.13-1.48-.38-2.17-.25-.69-.68-1.2-1.28-1.55-.6-.35-1.23-.52-1.89-.52s-1.29,.15-1.84,.46c-.55,.31-.98,.78-1.28,1.41s-.46,1.43-.46,2.38v7.61c0,.19-.04,.32-.13,.4-.08,.07-.22,.11-.41,.11h-.38c-.08,0-.2-.02-.33-.05-.14-.03-.21-.19-.21-.46v-7.61c0-.76-.13-1.48-.38-2.17s-.68-1.2-1.28-1.55c-.6-.35-1.23-.52-1.89-.52-.42,0-.91,.1-1.47,.3-.56,.2-1.05,.63-1.46,1.28s-.62,1.54-.62,2.66v7.61c0,.19-.04,.32-.13,.4-.08,.07-.22,.11-.41,.11h-.38c-.08,0-.2-.02-.33-.05-.14-.03-.21-.19-.21-.46v-7.57c0-1.04,.14-1.92,.43-2.65s.67-1.31,1.16-1.74c.49-.43,1.02-.73,1.62-.9,.59-.17,1.16-.25,1.71-.25,.68,0,1.33,.12,1.95,.36,.62,.24,1.14,.61,1.54,1.09,.4,.49,.7,.98,.89,1.49,.19-.51,.49-1,.89-1.47,.4-.48,.92-.84,1.55-1.09,.63-.25,1.3-.38,2-.38,.55,0,1.11,.08,1.7,.25,.58,.17,1.11,.47,1.6,.9,.49,.43,.87,1.01,1.16,1.74s.43,1.61,.43,2.65Z" /><path fill="#304a5e" d="M35.91,15.56c0,.74-.11,1.51-.33,2.31-.22,.8-.64,1.58-1.25,2.35s-1.41,1.33-2.38,1.71c-.97,.38-1.96,.57-2.98,.57s-1.99-.17-2.85-.51c-.87-.34-1.61-.81-2.22-1.43s-1.08-1.35-1.39-2.2c-.32-.86-.48-1.79-.48-2.8s.16-1.92,.49-2.79c.33-.87,.79-1.62,1.39-2.25,.6-.63,1.34-1.12,2.2-1.46,.87-.34,1.82-.51,2.85-.51,2.07,0,3.74,.66,5.02,1.96,1.28,1.31,1.92,2.99,1.92,5.04Zm-1.49,.03c0-1.71-.5-3.1-1.49-4.17-.99-1.07-2.31-1.6-3.96-1.6s-3.03,.53-4.01,1.6c-.98,1.07-1.47,2.46-1.47,4.17s.49,3.05,1.47,4.09,2.32,1.55,4.01,1.55c.61,0,1.24-.09,1.87-.27,.63-.18,1.21-.49,1.74-.93,.53-.44,.97-1.04,1.31-1.77,.35-.74,.52-1.63,.52-2.66Z" /><path fill="#304a5e" d="M49.22,21.68v-6.75c0-1.63-.36-2.88-1.09-3.76-.73-.88-1.78-1.31-3.15-1.31s-2.45,.44-3.17,1.31c-.72,.88-1.08,2.13-1.08,3.76v6.75c0,.08-.02,.19-.05,.32-.03,.13-.2,.19-.49,.19h-.38c-.08,0-.2-.02-.33-.05-.14-.03-.21-.19-.21-.46v-6.69c0-2.09,.49-3.69,1.47-4.79,.98-1.1,2.39-1.65,4.23-1.65s3.25,.55,4.23,1.65c.98,1.1,1.47,2.69,1.47,4.79v6.69c0,.08-.02,.19-.05,.32-.03,.13-.19,.19-.46,.19h-.41c-.08,0-.2-.02-.33-.05s-.21-.19-.21-.46Z" /><path fill="#304a5e" d="M67.95,15.56c0,.74-.11,1.51-.33,2.31-.22,.8-.64,1.58-1.25,2.35s-1.41,1.33-2.38,1.71c-.97,.38-1.96,.57-2.98,.57s-1.99-.17-2.85-.51c-.87-.34-1.61-.81-2.22-1.43s-1.08-1.35-1.39-2.2c-.32-.86-.48-1.79-.48-2.8s.16-1.92,.49-2.79c.33-.87,.79-1.62,1.39-2.25,.6-.63,1.34-1.12,2.2-1.46,.87-.34,1.82-.51,2.85-.51,2.07,0,3.74,.66,5.02,1.96,1.28,1.31,1.92,2.99,1.92,5.04Zm-1.49,.03c0-1.71-.5-3.1-1.49-4.17-.99-1.07-2.31-1.6-3.96-1.6s-3.03,.53-4.01,1.6c-.98,1.07-1.47,2.46-1.47,4.17s.49,3.05,1.47,4.09,2.32,1.55,4.01,1.55c.61,0,1.24-.09,1.87-.27,.63-.18,1.21-.49,1.74-.93,.53-.44,.97-1.04,1.31-1.77,.35-.74,.52-1.63,.52-2.66Z" /><path fill="#304a5e" d="M71.4,19.3V.54c0-.08,.02-.2,.05-.33,.03-.14,.19-.21,.49-.21h.38c.08,0,.19,.02,.33,.05,.14,.03,.21,.2,.21,.49V19.17c0,.66,.08,1.15,.25,1.47,.17,.33,.46,.49,.89,.49,.25,0,.56-.05,.92-.16,.11-.02,.18-.01,.24,.03,.05,.04,.08,.14,.08,.29v.44c0,.23-.13,.4-.38,.51-.38,.11-.75,.16-1.11,.16-.89,0-1.5-.25-1.84-.74-.34-.5-.51-1.28-.51-2.36Z" /><path fill="#304a5e" d="M90.83,15.56c0,.74-.11,1.51-.33,2.31-.22,.8-.64,1.58-1.25,2.35s-1.41,1.33-2.38,1.71c-.97,.38-1.96,.57-2.98,.57s-1.99-.17-2.85-.51c-.87-.34-1.61-.81-2.22-1.43s-1.08-1.35-1.39-2.2c-.32-.86-.48-1.79-.48-2.8s.16-1.92,.49-2.79c.33-.87,.79-1.62,1.39-2.25,.6-.63,1.34-1.12,2.2-1.46,.87-.34,1.82-.51,2.85-.51,2.07,0,3.74,.66,5.02,1.96,1.28,1.31,1.92,2.99,1.92,5.04Zm-1.49,.03c0-1.71-.5-3.1-1.49-4.17-.99-1.07-2.31-1.6-3.96-1.6s-3.03,.53-4.01,1.6c-.98,1.07-1.47,2.46-1.47,4.17s.49,3.05,1.47,4.09,2.32,1.55,4.01,1.55c.61,0,1.24-.09,1.87-.27,.63-.18,1.21-.49,1.74-.93,.53-.44,.97-1.04,1.31-1.77,.35-.74,.52-1.63,.52-2.66Z" /><path fill="#f8b1ad" d="M107.37,15.56v12.11c0,.08-.02,.2-.06,.33-.04,.14-.2,.21-.48,.21h-.35c-.21,0-.35-.04-.43-.13-.07-.08-.11-.22-.11-.41v-8.33c-.53,.99-1.28,1.77-2.27,2.33s-2.12,.84-3.41,.84c-2.03,0-3.66-.65-4.9-1.95-1.24-1.3-1.85-2.97-1.85-5.02,0-1.01,.16-1.95,.49-2.82,.33-.87,.79-1.61,1.39-2.23,.6-.62,1.33-1.1,2.19-1.43,.86-.33,1.78-.49,2.77-.49,2.09,0,3.78,.65,5.07,1.93,1.29,1.29,1.93,2.98,1.93,5.07Zm-1.49-.03c0-.8-.11-1.51-.33-2.12-.22-.61-.51-1.16-.87-1.65-.36-.49-.9-.93-1.63-1.33-.73-.4-1.61-.6-2.65-.6-.61,0-1.24,.09-1.87,.29-.63,.19-1.21,.52-1.73,.98-.52,.46-.95,1.07-1.28,1.81-.34,.74-.51,1.62-.51,2.63,0,.59,.08,1.21,.24,1.85,.16,.64,.44,1.25,.84,1.81,.4,.56,.96,1.04,1.66,1.44s1.58,.6,2.61,.6,2-.24,2.88-.73c.89-.49,1.55-1.19,1.98-2.11,.43-.92,.65-1.87,.65-2.87Z" /></g></g></svg>
